PathFileType	4	(X/Y/Z)	walk-thru1-1-TP.trc
DataRate	CameraRate	NumFrames	NumMarkers	Units	OrigDataRate	OrigDataStartFrame	OrigNumFrames
120.00	120.00	       4	60	mm	120.00	57	       452
Frame#	Time	Top.Head			Front.Head			Rear.Head			Jaw			C7			R.Clavicle			L.Clavicle			R.Shoulder			L.Shoulder			R.Scapula			L.Scapula			R.Scap.Inf			R.Biceps.Lateral			R.Elbow			R.Elbow.Medial			R.Forearm			R.Ulna			R.Radius			R.Wrist			R.Thumb.M1			R.Thumb.M2			R.Thumb.M3			R.Finger3.M1			R.Finger3.M2			R.Finger3.M3			L.Biceps.Lateral			L.Elbow			L.Elbow.Medial			L.Forearm			L.Ulna			L.Radius			L.Wrist			L.Thumb.M1			L.Thumb.M2			L.Thumb.M3			L.Finger3.M1			L.Finger3.M2			L.Finger3.M3			V.Sacral			R.ASIS			L.ASIS			R.Thigh			R.Thigh.Front			R.Knee			R.Knee.Medial			R.Shank			R.Ankle			R.Ankle.Medial			R.Heel			R.Toe			R.MedFoot			L.Thigh			L.Knee			L.Knee.Medial			L.Shank			L.Ankle			L.Ankle.Medial			L.Heel			L.Toe			L.MedFoot			V_mid_ASIS			V_R_Knee_JC			V_L_Knee_JC			V_R_Elbow_JC			V_L_Elbow_JC			V_R_Ankle_JC			V_L_Ankle_JC			V_R_Wrist_JC			V_L_Wrist_JC			V_R_ScaTrpz_1stMC_JC			V_R_1stMC_1stPP_JC			V_R_1stPP_1stDP_JC			V_R_LunCap_3rdMC_JC			V_R_3rdMC_3rdPP_JC			V_R_3rdPP_3rdMP_JC			V_R_3rdMP_3rdDP_JC			V_L_ScaTrpz_1stMC_JC			V_L_1stMC_1stPP_JC			V_L_1stPP_1stDP_JC			V_L_LunCap_3rdMC_JC			V_L_3rdMC_3rdPP_JC			V_L_3rdPP_3rdMP_JC			V_L_3rdMP_3rdPP_JC			V_ROOT_JC			V_R_Hip_JC			V_L_Hip_JC			V_R_GlenHum_JC			V_L_GlenHum_JC			V_ForeHead_Ctr			V_Vertex			V_Sagit_Lambdoid_Suture			V_R_FrontoTemp			V_L_FrontoTemporal			V_R_ParietalOccip			V_L_ParietalOcciptal			V_R_Temporal			V_L_Temporal			V_mid_FrontRearHead			V_mid_RLGlenHumCtrs			V_C7_vert			V_C1_vert			V_Mid_Hip			
		X1	Y1	Z1	X2	Y2	Z2	X3	Y3	Z3	X4	Y4	Z4	X5	Y5	Z5	X6	Y6	Z6	X7	Y7	Z7	X8	Y8	Z8	X9	Y9	Z9	X10	Y10	Z10	X11	Y11	Z11	X12	Y12	Z12	X13	Y13	Z13	X14	Y14	Z14	X15	Y15	Z15	X16	Y16	Z16	X17	Y17	Z17	X18	Y18	Z18	X19	Y19	Z19	X20	Y20	Z20	X21	Y21	Z21	X22	Y22	Z22	X23	Y23	Z23	X24	Y24	Z24	X25	Y25	Z25	X26	Y26	Z26	X27	Y27	Z27	X28	Y28	Z28	X29	Y29	Z29	X30	Y30	Z30	X31	Y31	Z31	X32	Y32	Z32	X33	Y33	Z33	X34	Y34	Z34	X35	Y35	Z35	X36	Y36	Z36	X37	Y37	Z37	X38	Y38	Z38	X39	Y39	Z39	X40	Y40	Z40	X41	Y41	Z41	X42	Y42	Z42	X43	Y43	Z43	X44	Y44	Z44	X45	Y45	Z45	X46	Y46	Z46	X47	Y47	Z47	X48	Y48	Z48	X49	Y49	Z49	X50	Y50	Z50	X51	Y51	Z51	X52	Y52	Z52	X53	Y53	Z53	X54	Y54	Z54	X55	Y55	Z55	X56	Y56	Z56	X57	Y57	Z57	X58	Y58	Z58	X59	Y59	Z59	X60	Y60	Z60	

57	0.467	1174.98694	-39.87009	1570.03918	1066.68311	-32.00121	1477.56897	1280.23889	-39.98052	1479.19873	1085.70227	-19.00829	1335.11890	1288.25134	-23.08455	1375.78674	1207.51794	91.59545	1287.86365	1188.92688	-122.40706	1291.64465	1258.95361	165.27423	1286.99353	1235.44263	-218.70854	1291.80701	1338.42383	63.68785	1300.80127	1334.15625	-119.43697	1298.46008	1384.36853	46.53543	1219.20569	1250.85156	221.78593	1147.10217	1296.45850	241.13448	988.80157	1327.03662	172.74323	975.95105	1225.92114	234.02977	908.35114	1258.74561	260.03622	825.26971	1196.84717	214.62279	775.85968	1202.63293	253.64975	740.29401	1178.55310	212.49464	720.45325	1173.35791	194.17667	685.18689	1174.07300	181.51065	643.74701	1192.26282	262.23886	662.00800	1200.10413	239.34480	614.09662	1217.04944	218.40361	581.76233	1238.30420	-280.39676	1144.19104	1268.38184	-293.89722	995.28168	1291.82837	-216.83516	985.05176	1183.16931	-279.26413	934.57397	1193.56982	-317.66064	843.33630	1139.57764	-262.75183	800.21991	1133.64636	-313.46402	774.78900	1110.54053	-271.01065	763.52606	1098.64722	-250.69524	725.36237	1095.14185	-242.10518	674.13312	1105.69836	-316.14862	689.75092	1105.24048	-304.10379	650.04938	1112.29321	-275.37292	613.95813	1402.01721	-18.27660	912.73444	1204.10486	133.62997	967.53363	1217.26685	-185.73561	960.13788	1159.73645	166.81133	583.73901	1077.66174	103.14227	496.29617	1130.86890	136.96281	438.36325	1109.67578	22.60729	436.34537	1218.62109	85.11278	284.92648	1398.67590	90.41265	149.48936	1364.59717	3.52315	151.02719	1455.57898	26.52631	152.10672	1297.23413	81.34838	55.81024	1318.84167	33.52197	98.36960	1224.20142	-202.29610	580.19751	1209.26794	-169.18843	443.48752	1193.32507	-48.24743	429.78427	1217.44275	-107.54031	248.76128	1300.58984	-121.59305	63.09499	1282.43274	-33.01205	83.30756	1354.54053	-71.25240	40.49539	1149.72766	-87.72728	37.45917	1207.81995	-53.34608	59.89622																																																																																																																															
58	0.475	1168.37048	-40.52342	1570.58765	1060.19812	-33.05133	1477.21521	1273.56738	-40.12252	1479.30762	1078.36719	-19.55218	1334.84839	1281.62158	-22.48291	1375.86353	1201.09424	90.28825	1287.70972	1181.78662	-123.55763	1291.34814	1253.63318	166.03691	1286.55237	1228.97192	-219.63495	1291.41431	1332.91272	63.10936	1301.39758	1327.27441	-119.29174	1298.47412	1378.47327	46.78105	1219.08740	1246.14026	220.93097	1146.51282	1292.01282	242.57390	989.06750	1323.62915	172.05125	976.18268	1223.62366	233.42065	908.11334	1256.91199	259.98065	825.30066	1195.37366	213.42484	774.56085	1201.70142	253.95042	739.67200	1177.20264	212.91762	719.53033	1172.93604	194.29941	683.92566	1174.97864	182.26675	641.98633	1191.60596	261.49265	660.59100	1201.61548	239.80058	612.71295	1218.01050	217.98215	581.36169	1230.49634	-280.50735	1144.07263	1260.97156	-293.53406	996.39520	1283.30310	-217.00143	985.17969	1174.42053	-279.71878	934.93561	1184.77563	-318.79599	843.39642	1130.88574	-263.19193	801.16968	1124.54944	-312.63852	776.25757	1100.93018	-271.29001	763.87433	1088.50659	-250.68349	726.39825	1085.53198	-242.46082	675.64624	1097.23621	-315.07162	690.89441	1095.17322	-304.29379	651.44031	1102.33948	-275.69568	615.54846	1397.18518	-18.61332	913.32397	1198.73132	133.26944	968.33118	1213.07678	-185.99713	959.35730	1150.74622	166.32703	584.83905	1067.67981	101.86404	498.59763	1118.24878	135.83504	440.42444	1099.94580	22.11767	438.08627	1202.73706	82.25983	284.39194	1381.05029	89.53873	144.24570	1346.33521	4.24602	145.57390	1438.66138	27.50157	145.20775	1275.06250	82.06618	54.95591	1299.82068	34.99757	96.52788	1221.56714	-201.77048	580.10065	1208.87598	-168.83803	443.37988	1191.45898	-48.99299	429.43872	1216.29651	-107.10320	248.46297	1300.58984	-121.59305	63.09499	1281.65503	-31.85361	83.95669	1355.60925	-72.74121	42.15224	1149.36902	-88.05531	37.33867	1207.97913	-53.28688	59.84650																																																																																																																															
59	0.483	1160.71814	-39.09275	1569.28210	1052.84399	-32.90740	1477.48145	1266.44409	-40.06399	1478.93311	1072.11987	-19.30583	1334.43933	1274.97937	-23.02272	1375.59985	1195.35608	91.41917	1286.94434	1174.88293	-124.38235	1291.54346	1248.38672	165.91087	1286.73120	1221.54810	-219.07083	1291.01587	1326.27136	62.85478	1301.90002	1320.80469	-119.75462	1298.58228	1373.01807	45.77933	1219.23120	1239.63965	221.23518	1145.94214	1288.28052	243.71663	989.92358	1319.82068	172.38832	976.19135	1219.46228	233.51747	907.25995	1253.60706	260.17871	825.29694	1194.07031	214.80711	772.73511	1200.34729	253.32291	738.63586	1176.22607	212.13165	718.61255	1172.91003	193.77827	682.37201	1174.63525	182.57214	640.09888	1191.43835	261.23767	659.30725	1201.80396	239.75725	612.27838	1219.09375	218.65384	580.79437	1222.14001	-280.61749	1144.81982	1253.68262	-294.59918	995.91229	1276.93030	-218.73260	983.77496	1167.59985	-278.72855	935.92468	1176.18323	-318.74542	844.01422	1121.99268	-263.08859	801.29492	1115.53577	-312.00424	776.82800	1092.06921	-270.66788	765.11017	1079.43079	-250.28784	727.13092	1075.62512	-242.54794	676.38947	1086.62292	-316.45123	691.67786	1085.14233	-305.38855	651.47583	1092.14771	-276.34402	616.00836	1391.73291	-17.71829	912.87067	1193.61951	131.87689	968.04700	1206.97766	-187.06912	958.72760	1141.76160	166.08002	585.72699	1057.86304	99.87450	500.53494	1108.48193	134.40079	441.24808	1090.71143	21.86645	440.33835	1189.17383	82.66556	284.87646	1364.36316	90.55291	139.15982	1328.34106	3.27482	142.03430	1419.15967	27.05284	137.39740	1252.48254	82.78111	54.32801	1279.13892	35.55516	93.52991	1218.55518	-200.87857	579.73975	1207.76318	-168.79869	443.15576	1189.22485	-49.72945	429.74219	1215.14392	-107.66943	248.16896	1301.60742	-120.81059	62.80835	1282.49182	-32.82167	83.18401	1355.60925	-72.74121	42.15224	1149.41589	-88.39208	37.38171	1207.48279	-53.58699	59.86312																																																																																																																															
60	0.492	1155.04346	-39.17085	1569.08276	1045.86096	-32.18711	1476.28503	1260.28723	-40.61906	1479.30237	1065.99866	-19.63579	1334.29810	1268.75476	-21.88715	1375.79382	1188.76624	90.88239	1285.83557	1169.67224	-123.07270	1290.97058	1242.63245	165.45166	1285.83557	1215.41223	-218.86504	1291.67859	1318.91431	62.46303	1300.92639	1314.11279	-119.74936	1299.13245	1366.61475	44.81268	1219.44250	1234.72925	220.69716	1145.30261	1283.44775	242.32309	989.94287	1316.06665	172.60225	975.98157	1216.38916	233.16342	905.36346	1252.17480	260.45465	824.53729	1192.79199	214.67192	771.35895	1199.50293	253.34727	736.44531	1174.81763	212.85489	714.88092	1171.50562	193.26883	680.19830	1175.21692	181.95923	638.42859	1191.15845	262.89099	657.32874	1202.36780	240.74194	610.47675	1221.05701	219.80244	579.55298	1215.09375	-281.89432	1144.63550	1245.73560	-294.50467	995.64850	1270.52405	-219.57014	983.82654	1159.30994	-280.18991	936.86255	1168.36438	-319.01224	844.18347	1113.50452	-264.34039	801.43994	1106.21045	-313.42795	777.89075	1082.77429	-272.09109	766.06262	1071.47278	-250.70757	727.92694	1066.84863	-242.25851	677.36908	1077.71997	-316.21378	692.42676	1075.14319	-303.87408	652.36371	1083.32739	-276.22079	616.87360	1384.28894	-17.49989	912.60126	1188.18384	132.01448	968.63879	1201.68872	-186.26672	958.80255	1132.59448	165.45596	586.26270	1047.86707	99.36880	502.66888	1096.35596	134.32452	442.88284	1080.39819	20.98256	442.40747	1175.07202	82.45042	283.84860	1343.74280	91.06637	133.12799	1309.45447	5.01464	137.40446	1401.14148	27.66233	130.83737	1230.00000	83.50071	53.54166	1260.22290	35.83110	90.68386	1216.40735	-200.69650	579.71344	1205.58911	-168.11775	443.11261	1186.20471	-50.03233	429.55856	1214.51013	-106.44569	247.77740	1300.50586	-121.32473	63.37711	1282.21863	-32.60001	82.55668	1355.37939	-72.11584	41.83021	1149.46057	-88.62587	37.31084	1207.71326	-53.17805	59.75993																																																																																																																															
